<svg xmlns="http://www.w3.org/2000/svg" width="350" height="350"  xmlns:v="https://vecta.io/nano"><path fill="#fff" d="M-1-1h352v352H-1z"/><g transform="rotate(90 175 175)"><g fill="#0"><path d="M225 75h50v50h-50zM75 75h125v50H75z"/><path d="M75 75h50v125H75z"/></g><g transform="rotate(180 175 212.5)" fill="#0"><path d="M225 150h50v50h-50zm-150 0h125v50H75z"/><path d="M75 150h50v125H75z"/></g></g><g fill="#0"><path d="M0 0h275v50H0z"/><path d="M0 0h50v275H0z"/></g><g transform="rotate(180 212.5 212.5)" fill="#0"><path d="M75 75h275v50H75z"/><path d="M75 75h50v275H75z"/></g><path d="M300 0h50v50h-50zM0 300h50v50H0z" fill="#0"/></svg>